<svg xmlns="http://www.w3.org/2000/svg" xmlns:xlink="http://www.w3.org/1999/xlink" width="512" zoomAndPan="magnify" viewBox="0 0 384 383.999986" height="512" preserveAspectRatio="xMidYMid meet" version="1.0"><defs><clipPath id="0aa0e73b82"><path d="M 57 19.199219 L 384 19.199219 L 384 364.949219 L 57 364.949219 Z M 57 19.199219 " clip-rule="nonzero"/></clipPath></defs><path fill="#9ff0ab" d="M 0 172.800781 L 230.398438 172.800781 L 230.398438 211.199219 L 0 211.199219 Z M 0 172.800781 " fill-opacity="1" fill-rule="evenodd"/><path fill="#9ff0ab" d="M 176.777344 111.222656 L 243.976562 178.421875 C 251.476562 185.921875 251.476562 198.078125 243.976562 205.574219 L 176.777344 272.773438 L 149.625 245.621094 L 203.25 192 L 149.625 138.375 Z M 176.777344 111.222656 " fill-opacity="1" fill-rule="evenodd"/><g clip-path="url(#0aa0e73b82)"><path fill="#9ff0ab" d="M 211.199219 57.601562 C 159.023438 57.601562 113.753906 87.328125 91.472656 130.859375 L 57.292969 113.363281 C 85.882812 57.503906 144.050781 19.199219 211.199219 19.199219 C 306.632812 19.199219 383.996094 96.566406 383.996094 192 C 383.996094 287.433594 306.632812 364.796875 211.199219 364.796875 C 144.050781 364.796875 85.882812 326.492188 57.292969 270.632812 L 91.472656 253.136719 C 113.753906 296.667969 159.023438 326.398438 211.199219 326.398438 C 285.425781 326.398438 345.597656 266.226562 345.597656 192 C 345.597656 117.773438 285.425781 57.601562 211.199219 57.601562 Z M 211.199219 57.601562 " fill-opacity="1" fill-rule="evenodd"/></g></svg>